<svg xmlns="http://www.w3.org/2000/svg" viewBox="0 0 708.05 292.21">

<defs>
	<style>
		.cls-1 {
			fill:none;
			stroke: #00a0e3;
			stroke-miterlimit: 2.61;
			stroke-width: 3px;
			stroke-dasharray: 1600;
			stroke-dashoffset: 0;
			animation: dash 4s linear;
			animation-delay: 1.5s;
		}

		@keyframes dash {
			from {
				stroke-dashoffset: 1600;
				opacity: 1;
			}
			
			to {		
				stroke-dashoffset: 0;
				opacity: 1;
			}
		}
	</style>
</defs>

<title>2Asset 1</title>

<g id="Layer_2" data-name="Layer 2"><g id="Layer_1-2" data-name="Layer 1"><g id="Layer_1-3" data-name="Layer_1"><path class="cls-1" d="M349.19,1.49c70,0,143.28,7.51,210.28,28.41,31.93,10,62.75,23.75,90.53,42.49,24.1,16.26,47.35,39.28,49.07,68.31,1.93,32.64-24,60.24-51.22,78.3-46,30.47-100.15,46.29-154.41,56.17-98.4,17.93-200.31,17.55-298.18-3.11C145.38,261.53,96,245.49,53.2,217.75,27.84,201.31,3.33,177.52,1.58,147.34.47,128,9.2,109.14,21.92,94.57,35.75,78.73,54.51,65.69,73.57,57"/></g></g></g>

</svg>